<svg viewBox="0 0 512 512" xmlns="http://www.w3.org/2000/svg" fill-rule="evenodd" clip-rule="evenodd" stroke-linejoin="round" stroke-miterlimit="2"><path d="M505.999 16.669v478.66c0 5.888-4.782 10.67-10.67 10.67H16.67c-5.888 0-10.67-4.782-10.67-10.67V16.67c0-5.888 4.782-10.67 10.67-10.67h478.66C501.218 6 506 10.782 506 16.67z" fill="#000008"/><path d="M287.518 183.943c-7.713 3.863-11.063 11.063-11.063 30.613 0 0 3.863-3.857 10.038-6.175 4.5-1.67 7.712-3.857 10.031-5.532 6.688-5.012 7.719-11.056 7.719-21.606-.131 0-10.681-.644-16.725 2.7zM237.737 188.45c-6.688 5.53-8.363 15.05-8.363 15.05l-21.606 82.83-17.75-67.78c-1.669-7.207-5.012-16.082-10.031-22.25-6.175-7.85-19.037-8.363-20.581-8.363-1.156 0-13.888.512-20.575 8.362-5.019 6.17-8.363 15.044-10.031 22.25l-16.725 67.781-21.607-82.83s-1.668-8.876-8.362-15.05C71.562 178.93 56 181.25 56 181.25l41.156 154.987s13.375 1.156 20.069-2.188c8.868-4.5 13.375-7.719 18.387-28.937 5.019-18.913 18.394-73.956 19.425-77.819.513-1.669 1.669-6.687 5.013-6.687 3.343 0 4.506 4.5 5.018 6.687 1.157 3.863 14.406 58.906 19.419 77.819 5.531 21.093 9.394 24.437 18.394 28.937 6.687 3.344 20.062 2.188 20.062 2.188l40.9-154.988s-15.562-2.187-26.106 7.2zM304.118 214.556s-2.831 3.856-8.363 7.206c-3.856 2.181-7.2 3.344-11.056 5.525-6.694 3.35-8.362 6.694-8.362 11.706V344.08s10.543 1.157 17.237-2.187c8.869-4.506 10.544-8.875 10.544-27.781v-99.556zM405.618 259.062l52.218-77.3s-21.612-3.863-32.8 6.169c-7.2 6.175-14.406 17.75-14.406 17.75l-18.906 27.78c-1.156 1.676-2.188 2.832-3.856 2.832-1.675 0-3.344-1.669-3.863-2.831L365.1 205.68s-7.712-11.063-14.4-17.75c-11.062-10.032-32.8-6.169-32.8-6.169l50.544 77.169-51.7 77.174s22.762 2.832 33.956-7.206c7.2-6.175 13.888-16.719 13.888-16.719l18.906-27.78c1.156-1.676 2.187-2.832 3.856-2.832 1.675 0 3.35 1.675 3.862 2.831l18.907 27.781s7.2 10.544 13.893 16.72c11.057 10.037 33.307 7.205 33.307 7.205l-51.7-77.043z" fill="#fff" fill-rule="nonzero"/></svg>